<?xml version="1.0" encoding="UTF-8" standalone="no"?>
<svg width="260px" height="20px" viewBox="0 0 260 20" version="1.1" xmlns="http://www.w3.org/2000/svg" xmlns:xlink="http://www.w3.org/1999/xlink" xmlns:sketch="http://www.bohemiancoding.com/sketch/ns">
    <!-- Generator: Sketch 3.3.3 (12072) - http://www.bohemiancoding.com/sketch -->
    <title>Shape</title>
    <desc>Created with Sketch.</desc>
    <defs></defs>
    <g id="Page-1" stroke="none" stroke-width="1" fill="none" fill-rule="evenodd" sketch:type="MSPage">
        <path d="M15.0987405,15.8444285 C14.9358045,15.7358045 14.7185564,15.7358045 14.4469963,15.8987405 C13.0348839,16.9306688 11.7313955,17.8539731 9.45029083,17.8539731 C5.32257759,17.8539731 2.11816863,14.3780041 2.11816863,10.3046028 C2.11816863,6.23120162 5.32257759,2.75523258 9.45029083,2.75523258 C11.2425874,2.75523258 13.0891959,3.56991283 14.4469963,4.71046517 C14.7185564,4.98202525 14.9358045,4.98202525 15.1530525,4.71046517 L15.8591087,4.00440896 C16.0763568,3.78716089 16.0220448,3.4612888 15.8591087,3.24404073 C14.0668122,1.72330428 12.1658916,0.8 9.50460284,0.8 C4.23633727,0.8 0,5.03633727 0,10.3046028 C0,15.5728684 4.23633727,19.7548937 9.50460284,19.7548937 C11.8400195,19.7548937 14.1211242,18.9402134 15.9134208,17.2022289 C16.0763568,17.0392929 16.1306688,16.6591087 15.9134208,16.4961727 L15.0987405,15.8444285 L15.0987405,15.8444285 Z M33.1846419,0.854312016 C27.9163763,0.854312016 23.7343511,5.09064928 23.7343511,10.3589149 C23.7343511,15.6271804 27.9163763,19.8092057 33.1846419,19.8092057 C38.4529075,19.8092057 42.6349328,15.6271804 42.6349328,10.3589149 C42.6892448,5.09064928 38.4529075,0.854312016 33.1846419,0.854312016 L33.1846419,0.854312016 Z M33.1846419,17.9625971 C29.0026167,17.9625971 25.5809597,14.5409401 25.5809597,10.3589149 C25.5809597,6.17688961 29.0026167,2.70092057 33.1846419,2.70092057 C37.3666672,2.70092057 40.7883242,6.17688961 40.7883242,10.3589149 C40.8426362,14.5409401 37.3666672,17.9625971 33.1846419,17.9625971 L33.1846419,17.9625971 Z M66.4235959,1.1258721 L65.5002916,1.1258721 C65.2287315,1.1258721 65.0114834,1.34312016 65.0114834,1.61468024 L65.0114834,15.6271804 L64.9571714,15.6271804 L53.1171519,0.854312016 L52.4654077,0.854312016 C52.1938476,0.854312016 51.9765995,1.07156008 51.9765995,1.34312016 L51.9765995,19.0488375 C51.9765995,19.3203975 52.1938476,19.5376456 52.4654077,19.5376456 L53.388712,19.5376456 C53.660272,19.5376456 53.8775201,19.3203975 53.8775201,19.0488375 L53.8775201,4.76477719 L65.9347877,19.8092057 L66.4235959,19.8092057 C66.6951559,19.8092057 66.912404,19.5919576 66.912404,19.3203975 L66.912404,1.61468024 C66.912404,1.39743218 66.6951559,1.1258721 66.4235959,1.1258721 L66.4235959,1.1258721 Z M86.7362899,1.1258721 L75.6023266,1.1258721 C75.3307665,1.1258721 75.1135185,1.34312016 75.1135185,1.61468024 L75.1135185,2.37504847 C75.1135185,2.64660855 75.3307665,2.86385662 75.6023266,2.86385662 L80.164536,2.86385662 L80.164536,18.9945254 C80.164536,19.2660855 80.381784,19.4833336 80.6533441,19.4833336 L81.6309604,19.4833336 C81.9025205,19.4833336 82.1197686,19.2660855 82.1197686,18.9945254 L82.1197686,2.86385662 L86.6819779,2.86385662 C86.953538,2.86385662 87.1707861,2.64660855 87.1707861,2.37504847 L87.1707861,1.61468024 C87.2250981,1.39743218 87.00785,1.1258721 86.7362899,1.1258721 L86.7362899,1.1258721 Z M100.966038,1.18018411 C100.911726,1.01724806 100.74879,0.908624032 100.531542,0.908624032 L100.259982,0.908624032 C100.042734,0.908624032 99.8797979,1.01724806 99.8254859,1.18018411 L91.8416195,18.8859014 C91.6786834,19.2117735 91.8959315,19.5919576 92.2761156,19.5919576 L93.3080439,19.5919576 C93.525292,19.5919576 93.688228,19.4290216 93.74254,19.3203975 L100.259982,4.71046517 L100.47723,4.71046517 L106.994672,19.3203975 C107.048984,19.4290216 107.21192,19.5919576 107.429168,19.5919576 L108.461096,19.5919576 C108.841281,19.5919576 109.058529,19.2660855 108.895593,18.8859014 L100.966038,1.18018411 L100.966038,1.18018411 Z M130.729023,15.8444285 C130.566087,15.7358045 130.348839,15.7358045 130.077279,15.8987405 C128.665166,16.9306688 127.361678,17.8539731 125.080573,17.8539731 C120.95286,17.8539731 117.748451,14.3780041 117.748451,10.3046028 C117.748451,6.23120162 120.95286,2.75523258 125.080573,2.75523258 C126.87287,2.75523258 128.719478,3.56991283 130.077279,4.71046517 C130.348839,4.98202525 130.566087,4.98202525 130.783335,4.71046517 L131.489391,4.00440896 C131.706639,3.78716089 131.652327,3.4612888 131.489391,3.24404073 C129.697095,1.72330428 127.796174,0.8 125.134885,0.8 C119.86662,0.8 115.630283,5.03633727 115.630283,10.3046028 C115.630283,15.5728684 119.86662,19.7548937 125.134885,19.7548937 C127.470302,19.7548937 129.751407,18.9402134 131.543703,17.2022289 C131.706639,17.0392929 131.760951,16.6591087 131.543703,16.4961727 L130.729023,15.8444285 L130.729023,15.8444285 Z M149.955477,1.1258721 L138.821514,1.1258721 C138.549953,1.1258721 138.332705,1.34312016 138.332705,1.61468024 L138.332705,2.37504847 C138.332705,2.64660855 138.549953,2.86385662 138.821514,2.86385662 L143.383723,2.86385662 L143.383723,18.9945254 C143.383723,19.2660855 143.600971,19.4833336 143.872531,19.4833336 L144.850147,19.4833336 C145.121707,19.4833336 145.338955,19.2660855 145.338955,18.9945254 L145.338955,2.86385662 L149.901165,2.86385662 C150.172725,2.86385662 150.389973,2.64660855 150.389973,2.37504847 L150.389973,1.61468024 C150.444285,1.39743218 150.227037,1.1258721 149.955477,1.1258721 L149.955477,1.1258721 Z M179.283966,17.7996611 L171.734595,17.7996611 L171.734595,1.66899226 C171.734595,1.39743218 171.517347,1.18018411 171.245787,1.18018411 L170.213859,1.18018411 C169.942299,1.18018411 169.725051,1.39743218 169.725051,1.66899226 L169.725051,19.0488375 C169.725051,19.3203975 169.942299,19.5376456 170.213859,19.5376456 L179.283966,19.5376456 C179.555526,19.5376456 179.772774,19.3203975 179.772774,19.0488375 L179.772774,18.2884692 C179.772774,18.0169091 179.555526,17.7996611 179.283966,17.7996611 L179.283966,17.7996611 Z M189.386001,1.1258721 L188.354072,1.1258721 C188.082512,1.1258721 187.865264,1.34312016 187.865264,1.61468024 L187.865264,18.9945254 C187.865264,19.2660855 188.082512,19.4833336 188.354072,19.4833336 L189.386001,19.4833336 C189.657561,19.4833336 189.874809,19.2660855 189.874809,18.9945254 L189.874809,1.61468024 C189.929121,1.39743218 189.657561,1.1258721 189.386001,1.1258721 L189.386001,1.1258721 Z M209.264199,11.1192831 C208.992639,11.1192831 208.77539,11.3365312 208.77539,11.6080912 L208.77539,12.5857075 C208.77539,12.8572676 208.992639,13.0745157 209.264199,13.0745157 L213.391912,13.0745157 L213.391912,16.7677328 C212.315614,17.2913743 210.390016,17.8539731 208.666766,17.8539731 C204.539053,17.8539731 201.334644,14.323692 201.334644,10.2502908 C201.334644,6.17688961 204.484741,2.70092057 208.666766,2.70092057 C210.404751,2.70092057 212.305672,3.56991283 213.663472,4.76477719 C213.935032,5.03633727 214.097968,5.03633727 214.369528,4.76477719 L215.129896,4.00440896 C215.347144,3.78716089 215.292832,3.4612888 215.129896,3.24404073 C213.3376,1.72330428 211.436679,0.8 208.77539,0.8 C203.507125,0.8 199.270788,5.03633727 199.270788,10.3046028 C199.270788,15.5728684 203.507125,19.7548937 208.77539,19.7548937 C212.577232,19.7548937 215.292832,18.0169091 215.292832,18.0169091 C215.401456,17.9625971 215.51008,17.7453491 215.51008,17.582413 L215.51008,11.5537792 C215.401456,11.3908432 215.184208,11.1192831 214.912648,11.1192831 L209.264199,11.1192831 Z M239.244432,1.1258721 L238.212503,1.1258721 C237.940943,1.1258721 237.723695,1.34312016 237.723695,1.61468024 L237.723695,9.27267453 L227.024228,9.27267453 L227.024228,1.61468024 C227.024228,1.34312016 226.80698,1.1258721 226.53542,1.1258721 L225.503491,1.1258721 C225.231931,1.1258721 225.014683,1.34312016 225.014683,1.61468024 L225.014683,18.9945254 C225.014683,19.2660855 225.231931,19.4833336 225.503491,19.4833336 L226.53542,19.4833336 C226.80698,19.4833336 227.024228,19.2660855 227.024228,18.9945254 L227.024228,11.0106591 L237.723695,11.0106591 L237.723695,18.9945254 C237.723695,19.2660855 237.940943,19.4833336 238.212503,19.4833336 L239.244432,19.4833336 C239.515992,19.4833336 239.73324,19.2660855 239.73324,18.9945254 L239.73324,1.61468024 C239.73324,1.39743218 239.515992,1.1258721 239.244432,1.1258721 L239.244432,1.1258721 Z M259.557126,1.1258721 L248.423162,1.1258721 C248.151602,1.1258721 247.934354,1.34312016 247.934354,1.61468024 L247.934354,2.37504847 C247.934354,2.64660855 248.151602,2.86385662 248.423162,2.86385662 L252.985372,2.86385662 L252.985372,18.9945254 C252.985372,19.2660855 253.20262,19.4833336 253.47418,19.4833336 L254.451796,19.4833336 C254.723356,19.4833336 254.940604,19.2660855 254.940604,18.9945254 L254.940604,2.86385662 L259.502814,2.86385662 C259.774374,2.86385662 259.991622,2.64660855 259.991622,2.37504847 L259.991622,1.61468024 C260.045934,1.39743218 259.828686,1.1258721 259.557126,1.1258721 L259.557126,1.1258721 Z" id="Shape" fill="#F6E698" sketch:type="MSShapeGroup"></path>
    </g>
</svg>