<?xml version="1.0" encoding="UTF-8" standalone="no"?>
<svg width="261px" height="232px" viewBox="0 0 261 232" version="1.1" xmlns="http://www.w3.org/2000/svg" xmlns:xlink="http://www.w3.org/1999/xlink" xmlns:sketch="http://www.bohemiancoding.com/sketch/ns">
    <!-- Generator: Sketch 3.3.3 (12072) - http://www.bohemiancoding.com/sketch -->
    <title>Group</title>
    <desc>Created with Sketch.</desc>
    <defs></defs>
    <g id="Page-1" stroke="none" stroke-width="1" fill="none" fill-rule="evenodd" sketch:type="MSPage">
        <g id="Group" sketch:type="MSLayerGroup" transform="translate(0.000000, -1.000000)" fill="#F6E698">
            <path d="M222.2,131.5 L218.9,130.7 L213,129.2 L195.8,124.8 L195.8,121.4 L165.6,121.4 C166,121 166.5,120.6 166.9,120.2 L178.5,120.2 L191.6,97.4 L181.2,79.4 C179.2,59.4 165.7,42.7 147.4,36.3 L146.3,35.9 C146.1,35.8 145.9,35.8 145.7,35.7 C145.6,35.7 145.4,35.6 145.3,35.6 C144.7,35.4 144,35.2 143.4,35.1 C143.2,35.1 143.1,35 142.9,35 C142.2,34.8 141.5,34.7 140.9,34.5 C140.8,34.5 140.7,34.5 140.6,34.4 C139.8,34.2 139,34.1 138.3,34 C138.1,34 138,34 137.8,33.9 C137.6,33.9 137.4,33.8 137.2,33.8 L135.1,12.5 C136.3,11.3 137.1,9.6 137.1,7.7 C137.1,4 134.1,1 130.4,1 C126.7,1 123.7,4 123.7,7.7 C123.7,9.6 124.5,11.2 125.7,12.5 L123.6,33.8 C123.4,33.8 123.1,33.9 122.9,33.9 C122.6,33.9 122.3,34 121.9,34.1 C121.6,34.2 121.3,34.2 121,34.3 C120.7,34.4 120.3,34.4 120,34.5 C119.7,34.6 119.4,34.6 119.1,34.7 C118.8,34.8 118.4,34.8 118.1,34.9 C117.8,35 117.5,35.1 117.2,35.1 C116.9,35.2 116.6,35.3 116.2,35.4 C115.7,35.5 115.2,35.7 114.7,35.8 C114.6,35.8 114.5,35.9 114.3,35.9 L113.2,36.3 C110.2,37.4 107.2,38.7 104.4,40.4 C101,36.2 95.8,33.4 90,33.4 C79.8,33.4 71.5,41.7 71.5,51.9 C71.5,59.1 75.7,65.3 81.7,68.4 C80.6,71.8 79.8,75.4 79.4,79 L68.7,97.5 L81.8,120.3 L93.6,120.3 C94,120.7 94.4,121.1 94.9,121.5 L65,121.5 L65,124.9 L47.8,129.3 L41.9,130.8 L38.6,131.6 L0.4,231.6 L68.4,184.8 L68.4,182.6 L78.7,182.6 L78.7,189.9 L110.5,189.9 C106.6,199.1 104.2,207.7 104.2,207.8 L103.6,210 L123.1,210 L130.4,232.7 L137.7,210 L157.2,210 L156.6,207.8 C156.6,207.7 154.2,199.1 150.3,189.9 L182,189.9 L182,182.6 L192.3,182.6 L192.3,184.8 L260.3,231.6 L222.2,131.5 L222.2,131.5 Z M65,182.4 L65,182.8 L7.5,222.3 L41.1,134.2 L43.4,133.6 L65,177.6 L65,182.4 L65,182.4 Z M65,161.5 L65,170 L46.8,132.9 L65,128.3 L65,161.5 L65,161.5 Z M179.1,99.6 C179.8,97.2 180.4,94.8 180.8,92.4 C180.8,92.2 180.9,92 180.9,91.8 C181,91.2 181.1,90.6 181.1,90 C181.1,89.7 181.2,89.5 181.2,89.2 C181.3,88.6 181.3,88.1 181.3,87.5 L181.3,86.8 L181.3,86.6 L187.5,97.4 L176.3,116.7 L169.8,116.7 C174.1,111.6 177.2,105.8 179.1,99.6 L179.1,99.6 Z M178,84.4 C178,85.2 178,86 177.9,86.8 C177.9,87 177.9,87.3 177.8,87.5 C177.8,88 177.7,88.6 177.7,89.1 C177.7,89.4 177.6,89.6 177.6,89.9 C177.5,90.4 177.5,91 177.4,91.5 C177.4,91.7 177.3,92 177.3,92.2 C177.2,92.8 177.1,93.3 177,93.9 C177,94.1 176.9,94.3 176.9,94.4 C176.8,95 176.6,95.6 176.5,96.2 C176.5,96.3 176.4,96.5 176.4,96.6 C176.2,97.3 176,97.9 175.8,98.5 C175.8,98.6 175.8,98.6 175.7,98.7 C172.1,110 164.4,119.6 154.4,125.5 L151,83 L177.9,83 C178,83.4 178,83.9 178,84.4 L178,84.4 Z M177.7,79.5 L150.8,79.5 L147.6,40 C163.9,46.4 175.9,61.5 177.7,79.5 L177.7,79.5 Z M130.4,4.4 C132.2,4.4 133.7,5.9 133.7,7.7 C133.7,8.8 133.1,9.8 132.3,10.4 C132.2,10.5 132.1,10.5 132,10.6 C131.9,10.6 131.9,10.7 131.8,10.7 C131.7,10.8 131.6,10.8 131.5,10.8 C131.4,10.8 131.4,10.8 131.3,10.9 C131.2,10.9 131,11 130.9,11 L129.9,11 C129.8,11 129.6,10.9 129.5,10.9 C129.4,10.9 129.4,10.9 129.3,10.8 C129.2,10.8 129.1,10.7 129,10.7 C128.9,10.7 128.8,10.6 128.8,10.6 C128.7,10.5 128.6,10.5 128.5,10.4 C127.7,9.8 127.1,8.8 127.1,7.7 C127,5.9 128.5,4.4 130.4,4.4 L130.4,4.4 Z M128.9,14.3 C129.1,14.3 129.3,14.4 129.5,14.4 L131.3,14.4 C131.5,14.4 131.6,14.3 131.8,14.3 L131.9,14.3 L133.8,33.5 L127.1,33.5 L128.9,14.3 L128.9,14.3 Z M116.6,38.8 C117,38.7 117.5,38.5 117.9,38.4 L118,38.4 C118.9,38.2 119.9,37.9 120.8,37.7 C120.9,37.7 121,37.7 121.1,37.6 C122,37.4 122.9,37.3 123.9,37.1 L124.3,37.1 C124.9,37 125.6,37 126.2,36.9 C126.7,36.9 127.1,36.8 127.6,36.8 C128.5,36.7 129.4,36.7 130.4,36.7 C131.2,36.7 132,36.7 132.8,36.8 L133,36.8 C133.8,36.8 134.6,36.9 135.5,37 L135.7,37 C136.3,37.1 137,37.1 137.6,37.2 C137.7,37.2 137.8,37.2 137.9,37.3 L139.7,37.6 C139.9,37.6 140,37.7 140.2,37.7 C141.5,38 142.9,38.3 144.2,38.7 L151.3,127.1 C149.2,128.1 147,129 144.7,129.7 L144.6,129.7 C143.9,129.9 143.3,130.1 142.6,130.3 C142.5,130.3 142.4,130.4 142.3,130.4 C141.7,130.6 141,130.7 140.4,130.8 C140.2,130.8 140.1,130.9 139.9,130.9 L138.1,131.2 C137.8,131.2 137.6,131.3 137.3,131.3 C136.8,131.4 136.2,131.4 135.7,131.5 L135.6,131.5 C135.2,131.5 134.8,131.6 134.5,131.6 C134.2,131.6 133.8,131.7 133.5,131.7 L133.1,131.7 C132.3,131.7 131.5,131.8 130.7,131.8 C129.9,131.8 129.1,131.8 128.3,131.7 L127.9,131.7 C127.6,131.7 127.2,131.6 126.9,131.6 C126.5,131.6 126.1,131.5 125.7,131.5 L125.6,131.5 C125.1,131.4 124.5,131.4 124,131.3 C123.7,131.3 123.5,131.2 123.2,131.2 L121.4,130.9 C121.2,130.9 121.1,130.8 120.9,130.8 C120.2,130.7 119.6,130.5 119,130.4 C118.9,130.4 118.8,130.3 118.7,130.3 C118,130.1 117.3,129.9 116.7,129.7 L116.6,129.7 C114.3,129 112.1,128.1 110,127.1 L116.6,38.8 L116.6,38.8 Z M113.1,40 L109.9,79.5 L83,79.5 C83.3,76.1 84,72.8 85.1,69.6 C85.5,69.7 86,69.8 86.4,69.9 C86.5,69.9 86.6,69.9 86.7,70 C87.2,70.1 87.6,70.2 88.1,70.2 L88.5,70.2 C89.1,70.3 89.6,70.3 90.2,70.3 C100.4,70.3 108.7,62 108.7,51.8 C108.7,51.2 108.7,50.7 108.6,50.1 L108.6,49.8 C108.5,49.3 108.5,48.7 108.4,48.2 C108.4,48.1 108.4,48 108.3,47.9 C108.2,47.4 108.1,46.9 107.9,46.3 L107.9,46.2 C107.7,45.7 107.5,45.2 107.3,44.6 C107.3,44.5 107.2,44.4 107.2,44.4 C107,43.9 106.8,43.5 106.5,43 C108.6,41.9 110.8,40.9 113.1,40 L113.1,40 Z M75.1,51.8 C75.1,43.5 81.9,36.7 90.2,36.7 C95.9,36.7 100.9,39.9 103.4,44.5 C103.4,44.6 103.5,44.6 103.5,44.7 C103.7,45 103.8,45.4 104,45.7 C104,45.8 104.1,45.9 104.1,46 C104.2,46.4 104.4,46.7 104.5,47.1 C104.5,47.2 104.5,47.2 104.6,47.3 C104.7,47.7 104.8,48.2 104.9,48.6 C104.9,48.7 104.9,48.8 105,48.9 C105.1,49.2 105.1,49.6 105.2,49.9 L105.2,50.3 C105.2,50.8 105.3,51.2 105.3,51.7 C105.3,60 98.5,66.8 90.2,66.8 C89.7,66.8 89.2,66.8 88.7,66.7 C88.5,66.7 88.3,66.6 88.2,66.6 C87.9,66.6 87.6,66.5 87.3,66.5 C87.1,66.5 86.9,66.4 86.7,66.3 C86.4,66.2 86.2,66.2 85.9,66.1 C85.7,66 85.4,65.9 85.2,65.9 C79.3,64 75.1,58.4 75.1,51.8 L75.1,51.8 Z M84.1,116.7 L72.9,97.4 L79.3,86.2 L79.3,87.5 C79.3,88.1 79.4,88.6 79.4,89.2 C79.4,89.4 79.4,89.7 79.5,89.9 C79.6,90.6 79.7,91.2 79.8,91.9 L79.8,92.2 C80.1,93.8 80.4,95.5 80.8,97.1 L80.8,97.3 C81,98.1 81.2,98.8 81.5,99.6 C83.4,105.8 86.5,111.6 90.7,116.7 L84.1,116.7 L84.1,116.7 Z M84.9,98.7 C84.9,98.6 84.9,98.6 84.8,98.5 C84.6,97.9 84.4,97.2 84.2,96.6 C84.2,96.5 84.1,96.3 84.1,96.2 C83.9,95.6 83.8,95 83.7,94.4 C83.7,94.2 83.6,94 83.6,93.9 C83.5,93.4 83.4,92.8 83.3,92.2 C83.3,92 83.2,91.7 83.2,91.5 C83.1,91 83.1,90.4 83,89.9 C83,89.6 82.9,89.4 82.9,89.1 C82.8,88.6 82.8,88 82.8,87.5 C82.8,87.3 82.8,87 82.7,86.8 C82.7,86 82.6,85.2 82.6,84.4 L82.6,82.9 L109.5,82.9 L106.1,125.4 C96.2,119.5 88.5,110 84.9,98.7 L84.9,98.7 Z M68.4,179 L68.4,164.9 L120.1,164.9 L114.3,179 L68.4,179 L68.4,179 Z M82.1,186.3 L82.1,182.7 L114.2,182.7 L115.4,186.3 L82.1,186.3 L82.1,186.3 Z M108.1,206.4 C109.1,203.1 111.3,196.5 114.2,189.7 L116.5,189.7 L121.9,206.4 L108.1,206.4 L108.1,206.4 Z M128.6,216 L117.4,181 L118.1,179.2 L118,179.2 L128.7,153.2 L128.7,216 L128.6,216 Z M132.1,216 L132.1,153.2 L142.8,179.2 L142.6,179.2 L143.3,181 L132.1,216 L132.1,216 Z M152.6,206.4 L138.9,206.4 L144.3,189.7 L146.6,189.7 C149.5,196.4 151.6,203.1 152.6,206.4 L152.6,206.4 Z M178.6,186.3 L145.4,186.3 L146.6,182.7 L178.7,182.7 L178.7,186.3 L178.6,186.3 Z M192.3,179 L146.3,179 L140.5,164.9 L192.2,164.9 L192.2,179 L192.3,179 Z M192.3,161.5 L139.2,161.5 L130.4,140 L121.6,161.5 L68.5,161.5 L68.5,124.8 L99.2,124.8 C101.4,126.5 103.7,128 106,129.3 L106.1,129.4 C111.9,132.6 118.3,134.5 125,135.2 L125.4,135.2 C126,135.3 126.5,135.3 127.1,135.3 L127.9,135.3 C128.7,135.3 129.5,135.4 130.4,135.4 C131.3,135.4 132,135.4 132.9,135.3 L133.7,135.3 C134.3,135.3 134.8,135.2 135.4,135.2 L135.8,135.2 C142.5,134.5 148.8,132.5 154.7,129.4 L154.8,129.3 C157.2,128 159.5,126.5 161.6,124.8 L192.3,124.8 L192.3,161.5 L192.3,161.5 Z M195.7,164.9 L195.7,128.2 L213.9,132.8 L195.7,170 L195.7,164.9 L195.7,164.9 Z M195.7,182.4 L195.7,177.7 L217.3,133.7 L219.6,134.3 L253.2,222.4 L195.7,182.9 L195.7,182.4 L195.7,182.4 Z" id="Shape" sketch:type="MSShapeGroup"></path>
            <path d="M90.2,58.6 C93.9,58.6 96.9,55.6 96.9,51.9 C96.9,48.2 93.9,45.2 90.2,45.2 C86.5,45.2 83.5,48.2 83.5,51.9 C83.5,55.5 86.5,58.6 90.2,58.6 Z M90.2,48.5 C92,48.5 93.5,50 93.5,51.8 C93.5,53.6 92,55.1 90.2,55.1 C88.4,55.1 86.9,53.6 86.9,51.8 C86.9,50 88.4,48.5 90.2,48.5 Z" id="Path" sketch:type="MSShapeGroup"></path>
        </g>
    </g>
</svg>