<svg xmlns="http://www.w3.org/2000/svg" width="478.8" height="316.8" viewBox="0 0 478.8 316.8"><g fill="#F6E698"><path d="M27.8 309.5c-.3-.2-.7-.2-1.2.1-2.6 1.9-5 3.6-9.2 3.6-7.6 0-13.5-6.4-13.5-13.9s5.9-13.9 13.5-13.9c3.3 0 6.7 1.5 9.2 3.6.5.5.9.5 1.3 0l1.3-1.3c.4-.4.3-1 0-1.4-3.3-2.8-6.8-4.5-11.7-4.5-9.7 0-17.5 7.8-17.5 17.5s7.8 17.4 17.5 17.4c4.3 0 8.5-1.5 11.8-4.7.3-.3.4-1 0-1.3l-1.5-1.2zM61.1 281.9c-9.7 0-17.4 7.8-17.4 17.5s7.7 17.4 17.4 17.4 17.4-7.7 17.4-17.4c.1-9.7-7.7-17.5-17.4-17.5zm0 31.5c-7.7 0-14-6.3-14-14s6.3-14.1 14-14.1 14 6.4 14 14.1c.1 7.7-6.3 14-14 14zM122.3 282.4h-1.7c-.5 0-.9.4-.9.9v25.8h-.1l-21.8-27.2h-1.2c-.5 0-.9.4-.9.9v32.6c0 .5.4.9.9.9h1.7c.5 0 .9-.4.9-.9v-26.3l22.2 27.7h.9c.5 0 .9-.4.9-.9v-32.6c0-.4-.4-.9-.9-.9zM159.7 282.4h-20.5c-.5 0-.9.4-.9.9v1.4c0 .5.4.9.9.9h8.4v29.7c0 .5.4.9.9.9h1.8c.5 0 .9-.4.9-.9v-29.7h8.4c.5 0 .9-.4.9-.9v-1.4c.1-.4-.3-.9-.8-.9zM185.9 282.5c-.1-.3-.4-.5-.8-.5h-.5c-.4 0-.7.2-.8.5l-14.7 32.6c-.3.6.1 1.3.8 1.3h1.9c.4 0 .7-.3.8-.5l12-26.9h.4l12 26.9c.1.2.4.5.8.5h1.9c.7 0 1.1-.6.8-1.3l-14.6-32.6zM240.7 309.5c-.3-.2-.7-.2-1.2.1-2.6 1.9-5 3.6-9.2 3.6-7.6 0-13.5-6.4-13.5-13.9s5.9-13.9 13.5-13.9c3.3 0 6.7 1.5 9.2 3.6.5.5.9.5 1.3 0l1.3-1.3c.4-.4.3-1 0-1.4-3.3-2.8-6.8-4.5-11.7-4.5-9.7 0-17.5 7.8-17.5 17.5s7.8 17.4 17.5 17.4c4.3 0 8.5-1.5 11.8-4.7.3-.3.4-1 0-1.3l-1.5-1.2zM276.1 282.4h-20.5c-.5 0-.9.4-.9.9v1.4c0 .5.4.9.9.9h8.4v29.7c0 .5.4.9.9.9h1.8c.5 0 .9-.4.9-.9v-29.7h8.4c.5 0 .9-.4.9-.9v-1.4c.1-.4-.3-.9-.8-.9zM330.1 313.1h-13.9v-29.7c0-.5-.4-.9-.9-.9h-1.9c-.5 0-.9.4-.9.9v32c0 .5.4.9.9.9h16.7c.5 0 .9-.4.9-.9V314c0-.5-.4-.9-.9-.9zM348.7 282.4h-1.9c-.5 0-.9.4-.9.9v32c0 .5.4.9.9.9h1.9c.5 0 .9-.4.9-.9v-32c.1-.4-.4-.9-.9-.9zM395.7 300.8h-10.4c-.5 0-.9.4-.9.9v1.8c0 .5.4.9.9.9h7.6v6.8s-3.4 2-8.7 2c-7.6 0-13.5-6.5-13.5-14s5.8-13.9 13.5-13.9c3.2 0 6.7 1.6 9.2 3.8.5.5.8.5 1.3 0l1.4-1.4c.4-.4.3-1 0-1.4-3.3-2.8-6.8-4.5-11.7-4.5-9.7 0-17.5 7.8-17.5 17.5s7.8 17.4 17.5 17.4c7 0 12-3.2 12-3.2.2-.1.4-.5.4-.8v-11.1c-.2-.3-.6-.8-1.1-.8zM440.5 282.4h-1.9c-.5 0-.9.4-.9.9v14.1H418v-14.1c0-.5-.4-.9-.9-.9h-1.9c-.5 0-.9.4-.9.9v32c0 .5.4.9.9.9h1.9c.5 0 .9-.4.9-.9v-14.7h19.7v14.7c0 .5.4.9.9.9h1.9c.5 0 .9-.4.9-.9v-32c0-.4-.4-.9-.9-.9zM477.9 282.4h-20.5c-.5 0-.9.4-.9.9v1.4c0 .5.4.9.9.9h8.4v29.7c0 .5.4.9.9.9h1.8c.5 0 .9-.4.9-.9v-29.7h8.4c.5 0 .9-.4.9-.9v-1.4c.1-.4-.3-.9-.8-.9zM198.2 57.6c3.7 0 6.7-3 6.7-6.7s-3-6.7-6.7-6.7-6.7 3-6.7 6.7c0 3.6 3 6.7 6.7 6.7zm0-10.1c1.8 0 3.3 1.5 3.3 3.3s-1.5 3.3-3.3 3.3-3.3-1.5-3.3-3.3 1.5-3.3 3.3-3.3z"/><path d="M330.2 130.5l-3.3-.8-5.9-1.5-17.2-4.4v-3.4h-30.2c.4-.4.9-.8 1.3-1.2h11.6l13.1-22.8-10.4-18c-2-20-15.5-36.7-33.8-43.1l-1.1-.4c-.2-.1-.4-.1-.6-.2-.1 0-.3-.1-.4-.1-.6-.2-1.3-.4-1.9-.5-.2 0-.3-.1-.5-.1-.7-.2-1.4-.3-2-.5-.1 0-.2 0-.3-.1-.8-.2-1.6-.3-2.3-.4-.2 0-.3 0-.5-.1-.2 0-.4-.1-.6-.1l-2.1-21.3c1.2-1.2 2-2.9 2-4.8 0-3.7-3-6.7-6.7-6.7s-6.7 3-6.7 6.7c0 1.9.8 3.5 2 4.8l-2.1 21.3c-.2 0-.5.1-.7.1-.3 0-.6.1-1 .2-.3.1-.6.1-.9.2-.3.1-.7.1-1 .2-.3.1-.6.1-.9.2-.3.1-.7.1-1 .2-.3.1-.6.2-.9.2-.3.1-.6.2-1 .3-.5.1-1 .3-1.5.4-.1 0-.2.1-.4.1l-1.1.4c-3 1.1-6 2.4-8.8 4.1-3.4-4.2-8.6-7-14.4-7-10.2 0-18.5 8.3-18.5 18.5 0 7.2 4.2 13.4 10.2 16.5-1.1 3.4-1.9 7-2.3 10.6l-10.7 18.5 13.1 22.8h11.8c.4.4.8.8 1.3 1.2H173v3.4l-17.2 4.4-5.9 1.5-3.3.8-38.2 100 68-46.8v-2.2h10.3v7.3h31.8c-3.9 9.2-6.3 17.8-6.3 17.9l-.6 2.2h19.5l7.3 22.7 7.3-22.7h19.5l-.6-2.2c0-.1-2.4-8.7-6.3-17.9H290v-7.3h10.3v2.2l68 46.8-38.1-100.1zM173 181.4v.4l-57.5 39.5 33.6-88.1 2.3-.6 21.6 44v4.8zm0-20.9v8.5l-18.2-37.1 18.2-4.6v33.2zm114.1-61.9c.7-2.4 1.3-4.8 1.7-7.2 0-.2.1-.4.1-.6.1-.6.2-1.2.2-1.8 0-.3.1-.5.1-.8.1-.6.1-1.1.1-1.7v-.7-.2l6.2 10.8-11.2 19.3h-6.5c4.3-5.1 7.4-10.9 9.3-17.1zM286 83.4c0 .8 0 1.6-.1 2.4 0 .2 0 .5-.1.7 0 .5-.1 1.1-.1 1.6 0 .3-.1.5-.1.8-.1.5-.1 1.1-.2 1.6 0 .2-.1.5-.1.7-.1.6-.2 1.1-.3 1.7 0 .2-.1.4-.1.5-.1.6-.3 1.2-.4 1.8 0 .1-.1.3-.1.4-.2.7-.4 1.3-.6 1.9 0 .1 0 .1-.1.2-3.6 11.3-11.3 20.9-21.3 26.8L259 82h26.9c.1.4.1.9.1 1.4zm-.3-4.9h-26.9L255.6 39c16.3 6.4 28.3 21.5 30.1 39.5zM238.4 3.4c1.8 0 3.3 1.5 3.3 3.3 0 1.1-.6 2.1-1.4 2.7-.1.1-.2.1-.3.2-.1 0-.1.1-.2.1-.1.1-.2.1-.3.1-.1 0-.1 0-.2.1-.1 0-.3.1-.4.1h-1c-.1 0-.3-.1-.4-.1-.1 0-.1 0-.2-.1-.1 0-.2-.1-.3-.1-.1 0-.2-.1-.2-.1-.1-.1-.2-.1-.3-.2-.8-.6-1.4-1.6-1.4-2.7-.1-1.8 1.4-3.3 3.3-3.3zm-1.5 9.9c.2 0 .4.1.6.1H239.3c.2 0 .3-.1.5-.1h.1l1.9 19.2H235.1l1.8-19.2zm-12.3 24.5c.4-.1.9-.3 1.3-.4h.1c.9-.2 1.9-.5 2.8-.7.1 0 .2 0 .3-.1.9-.2 1.8-.3 2.8-.5h.4c.6-.1 1.3-.1 1.9-.2.5 0 .9-.1 1.4-.1.9-.1 1.8-.1 2.8-.1.8 0 1.6 0 2.4.1h.2c.8 0 1.6.1 2.5.2h.2c.6.1 1.3.1 1.9.2.1 0 .2 0 .3.1l1.8.3c.2 0 .3.1.5.1 1.3.3 2.7.6 4 1l7.1 88.4c-2.1 1-4.3 1.9-6.6 2.6h-.1c-.7.2-1.3.4-2 .6-.1 0-.2.1-.3.1-.6.2-1.3.3-1.9.4-.2 0-.3.1-.5.1l-1.8.3c-.3 0-.5.1-.8.1-.5.1-1.1.1-1.6.2h-.1c-.4 0-.8.1-1.1.1-.3 0-.7.1-1 .1h-.4c-.8 0-1.6.1-2.4.1-.8 0-1.6 0-2.4-.1h-.4c-.3 0-.7-.1-1-.1-.4 0-.8-.1-1.2-.1h-.1c-.5-.1-1.1-.1-1.6-.2-.3 0-.5-.1-.8-.1l-1.8-.3c-.2 0-.3-.1-.5-.1-.7-.1-1.3-.3-1.9-.4-.1 0-.2-.1-.3-.1-.7-.2-1.4-.4-2-.6h-.1c-2.3-.7-4.5-1.6-6.6-2.6l6.6-88.3zm-3.5 1.2l-3.2 39.5H191c.3-3.4 1-6.7 2.1-9.9.4.1.9.2 1.3.3.1 0 .2 0 .3.1.5.1.9.2 1.4.2h.4c.6.1 1.1.1 1.7.1 10.2 0 18.5-8.3 18.5-18.5 0-.6 0-1.1-.1-1.7v-.3c-.1-.5-.1-1.1-.2-1.6 0-.1 0-.2-.1-.3-.1-.5-.2-1-.4-1.6v-.1c-.2-.5-.4-1-.6-1.6 0-.1-.1-.2-.1-.2-.2-.5-.4-.9-.7-1.4 2.1-1.1 4.3-2.1 6.6-3zm-38 11.8c0-8.3 6.8-15.1 15.1-15.1 5.7 0 10.7 3.2 13.2 7.8 0 .1.1.1.1.2.2.3.3.7.5 1 0 .1.1.2.1.3.1.4.3.7.4 1.1 0 .1 0 .1.1.2.1.4.2.9.3 1.3 0 .1 0 .2.1.3.1.3.1.7.2 1v.4c0 .5.1.9.1 1.4 0 8.3-6.8 15.1-15.1 15.1-.5 0-1 0-1.5-.1-.2 0-.4-.1-.5-.1-.3 0-.6-.1-.9-.1-.2 0-.4-.1-.6-.2-.3-.1-.5-.1-.8-.2-.2-.1-.5-.2-.7-.2-5.9-1.9-10.1-7.5-10.1-14.1zm9 64.9l-11.2-19.3 6.4-11.2v1.3c0 .6.1 1.1.1 1.7 0 .2 0 .5.1.7.1.7.2 1.3.3 2v.3c.3 1.6.6 3.3 1 4.9v.2c.2.8.4 1.5.7 2.3 1.9 6.2 5 12 9.2 17.1h-6.6zm.8-18c0-.1 0-.1-.1-.2-.2-.6-.4-1.3-.6-1.9 0-.1-.1-.3-.1-.4-.2-.6-.3-1.2-.4-1.8 0-.2-.1-.4-.1-.5-.1-.5-.2-1.1-.3-1.7 0-.2-.1-.5-.1-.7-.1-.5-.1-1.1-.2-1.6 0-.3-.1-.5-.1-.8-.1-.5-.1-1.1-.1-1.6 0-.2 0-.5-.1-.7 0-.8-.1-1.6-.1-2.4v-1.5h26.9l-3.4 42.5c-9.9-5.9-17.6-15.4-21.2-26.7zM176.4 178v-14.1h51.7l-5.8 14.1h-45.9zm13.7 7.3v-3.6h32.1l1.2 3.6h-33.3zm26 20.1c1-3.3 3.2-9.9 6.1-16.7h2.3l5.4 16.7h-13.8zm20.5 9.6l-11.2-35 .7-1.8h-.1l10.7-26V215zm3.5 0v-62.8l10.7 26h-.2l.7 1.8-11.2 35zm20.5-9.6h-13.7l5.4-16.7h2.3c2.9 6.7 5 13.4 6 16.7zm26-20.1h-33.2l1.2-3.6h32.1v3.6zm13.7-7.3h-46l-5.8-14.1h51.7V178zm0-17.5h-53.1l-8.8-21.5-8.8 21.5h-53.1v-36.7h30.7c2.2 1.7 4.5 3.2 6.8 4.5l.1.1c5.8 3.2 12.2 5.1 18.9 5.8h.4c.6.1 1.1.1 1.7.1h.8c.8 0 1.6.1 2.5.1s1.6 0 2.5-.1h.8c.6 0 1.1-.1 1.7-.1h.4c6.7-.7 13-2.7 18.9-5.8l.1-.1c2.4-1.3 4.7-2.8 6.8-4.5h30.7v36.7zm3.4 3.4V127.2l18.2 4.6-18.2 37.2v-5.1zm0 17.5v-4.7l21.6-44 2.3.6 33.6 88.1-57.5-39.5v-.5z"/></g></svg>